<svg width="185" height="60" viewBox="0 0 185 60" fill="none" xmlns="http://www.w3.org/2000/svg">
<path fill-rule="evenodd" clip-rule="evenodd" d="M151.068 19.12C150.886 19.1992 150.721 19.3153 150.581 19.4616C150.442 19.6075 150.331 19.7809 150.255 19.9717C150.18 20.1626 150.141 20.3672 150.141 20.5739C150.141 20.7805 150.18 20.9852 150.255 21.176C150.331 21.3669 150.442 21.5403 150.581 21.6862L156.609 28H139.458C139.034 28 138.627 28.2107 138.327 28.5858C138.027 28.9609 137.858 29.4696 137.858 30C137.858 30.5304 138.027 31.0391 138.327 31.4142C138.627 31.7893 139.034 32 139.458 32H156.61L150.581 38.3146C150.3 38.6096 150.142 39.0097 150.142 39.4269C150.142 39.8441 150.3 40.2443 150.581 40.5393C150.863 40.8343 151.245 41 151.643 41C152.041 41 152.423 40.8343 152.704 40.5393L161.7 31.1127C161.84 30.9668 161.951 30.7934 162.026 30.6026C162.102 30.4117 162.141 30.2071 162.141 30.0004C162.141 29.7938 162.102 29.5891 162.026 29.3983C161.951 29.2074 161.84 29.034 161.7 28.8881L152.704 19.4616C152.565 19.3153 152.4 19.1992 152.218 19.12C152.035 19.0408 151.84 19 151.643 19C151.446 19 151.25 19.0408 151.068 19.12Z" fill="#20113D"/>
<path d="M125 1H175V-1H125V1ZM179 5V55H181V5H179ZM175 59H125V61H175V59ZM121 55V5H119V55H121ZM125 59C122.791 59 121 57.2091 121 55H119C119 58.3137 121.686 61 125 61V59ZM179 55C179 57.2091 177.209 59 175 59V61C178.314 61 181 58.3137 181 55H179ZM175 1C177.209 1 179 2.79086 179 5H181C181 1.68629 178.314 -1 175 -1V1ZM125 -1C121.686 -1 119 1.68629 119 5H121C121 2.79086 122.791 1 125 1V-1Z" fill="#20113D"/>
<path fill-rule="evenodd" clip-rule="evenodd" d="M33.9318 19.12C34.1139 19.1992 34.2794 19.3153 34.4187 19.4616C34.5583 19.6075 34.6691 19.7809 34.7446 19.9717C34.8202 20.1626 34.8591 20.3672 34.8591 20.5739C34.8591 20.7805 34.8202 20.9852 34.7446 21.176C34.6691 21.3669 34.5583 21.5403 34.4187 21.6862L28.391 28H45.5416C45.9659 28 46.3729 28.2107 46.673 28.5858C46.973 28.9609 47.1416 29.4696 47.1416 30C47.1416 30.5304 46.973 31.0391 46.673 31.4142C46.3729 31.7893 45.9659 32 45.5416 32H28.3902L34.4187 38.3146C34.7002 38.6096 34.8584 39.0097 34.8584 39.4269C34.8584 39.8441 34.7002 40.2443 34.4187 40.5393C34.1371 40.8343 33.7553 41 33.3571 41C32.959 41 32.5771 40.8343 32.2956 40.5393L23.2996 31.1127C23.16 30.9668 23.0492 30.7934 22.9736 30.6026C22.898 30.4117 22.8591 30.2071 22.8591 30.0004C22.8591 29.7938 22.898 29.5891 22.9736 29.3983C23.0492 29.2074 23.16 29.034 23.2996 28.8881L32.2956 19.4616C32.4349 19.3153 32.6003 19.1992 32.7825 19.12C32.9646 19.0408 33.1599 19 33.3571 19C33.5543 19 33.7496 19.0408 33.9318 19.12Z" fill="#20113D"/>
<path d="M60 1H10V-1H60V1ZM6 5V55H4V5H6ZM10 59H60V61H10V59ZM64 55V5H66V55H64ZM60 59C62.2091 59 64 57.2091 64 55H66C66 58.3137 63.3137 61 60 61V59ZM6 55C6 57.2091 7.79086 59 10 59V61C6.68629 61 4 58.3137 4 55H6ZM10 1C7.79086 1 6 2.79086 6 5H4C4 1.68629 6.68629 -1 10 -1V1ZM60 -1C63.3137 -1 66 1.68629 66 5H64C64 2.79086 62.2091 1 60 1V-1Z" fill="#20113D"/>
</svg>
