<svg width="60" height="60" viewBox="0 0 60 60" fill="none" xmlns="http://www.w3.org/2000/svg">
<path fill-rule="evenodd" clip-rule="evenodd" d="M31.0682 19.12C30.8861 19.1992 30.7206 19.3153 30.5813 19.4616C30.4417 19.6075 30.3309 19.7809 30.2554 19.9717C30.1798 20.1626 30.1409 20.3672 30.1409 20.5739C30.1409 20.7805 30.1798 20.9852 30.2554 21.176C30.3309 21.3669 30.4417 21.5403 30.5813 21.6862L36.609 28H19.4584C19.0341 28 18.6271 28.2107 18.327 28.5858C18.027 28.9609 17.8584 29.4696 17.8584 30C17.8584 30.5304 18.027 31.0391 18.327 31.4142C18.6271 31.7893 19.0341 32 19.4584 32H36.6098L30.5813 38.3146C30.2998 38.6096 30.1416 39.0097 30.1416 39.4269C30.1416 39.8441 30.2998 40.2443 30.5813 40.5393C30.8629 40.8343 31.2447 41 31.6429 41C32.041 41 32.4229 40.8343 32.7044 40.5393L41.7004 31.1127C41.84 30.9668 41.9508 30.7934 42.0264 30.6026C42.102 30.4117 42.1409 30.2071 42.1409 30.0004C42.1409 29.7938 42.102 29.5891 42.0264 29.3983C41.9508 29.2074 41.84 29.034 41.7004 28.8881L32.7044 19.4616C32.5651 19.3153 32.3997 19.1992 32.2175 19.12C32.0354 19.0408 31.8401 19 31.6429 19C31.4457 19 31.2504 19.0408 31.0682 19.12Z" fill="#20113D"/>
<path d="M5 -6H55V-8H5V-6ZM59 -2V62H61V-2H59ZM55 66H5V68H55V66ZM1 62V-2H-1V62H1ZM5 66C2.79086 66 1 64.2091 1 62H-1C-1 65.3137 1.68629 68 5 68V66ZM59 62C59 64.2091 57.2091 66 55 66V68C58.3137 68 61 65.3137 61 62H59ZM55 -6C57.2091 -6 59 -4.20914 59 -2H61C61 -5.31371 58.3137 -8 55 -8V-6ZM5 -8C1.68629 -8 -1 -5.31371 -1 -2H1C1 -4.20914 2.79086 -6 5 -6V-8Z" fill="#20113D"/>
</svg>
