<svg aria-hidden="true" style="position: absolute; width: 0; height: 0; overflow: hidden;" version="1.1" xmlns="http://www.w3.org/2000/svg" xmlns:xlink="http://www.w3.org/1999/xlink">
<defs>
<symbol id="icon-donate" viewBox="0 0 40 32">
<path fill="#00a092" style="fill: var(--color1, #00a092)" d="M40 2.563v18.876c-0.004 0.005-0.009 0.011-0.014 0.016-0.018 0.020-0.038 0.041-0.038 0.068-0.261 1.060-1.013 1.795-2.244 2.237-0.104 0.033-0.188 0.184-0.198 0.284-0.016 0.632-0.014 1.265-0.012 1.897 0.001 0.211 0.001 0.422 0.001 0.632 0 0.751-0.125 1.511-0.679 2.112-0.564 0.609-0.626 1.244-0.574 1.937 0.007 0.067 0.005 0.138 0.002 0.208-0.001 0.034-0.002 0.068-0.002 0.101-0.010 0.685-0.47 1.069-1.326 1.069h-9.76c-0.835 0-1.305-0.376-1.315-1.044-0.007-0.384-0.005-0.764-0.002-1.145v-0.001c0.001-0.191 0.002-0.382 0.002-0.574 0-0.827-0.428-1.194-1.461-1.252-1.722-0.1-3.038-0.96-3.445-2.237-0.188-0.593-0.115-1.169 0.136-1.778h-15.198c-2.307 0-3.873-1.252-3.873-3.097v-17.833c0-1.185 0.637-2.087 1.931-2.663 0.272-0.124 0.581-0.197 0.889-0.271 0.129-0.031 0.258-0.062 0.384-0.096 11.19-0.008 22.39-0.008 33.591-0.008 0.037 0.008 0.073 0.019 0.11 0.029s0.073 0.021 0.11 0.029c1.409 0.242 2.338 0.918 2.808 2.004 0.066 0.144 0.116 0.302 0.163 0.455l0.014 0.046zM37.192 21.815c0.386-0.275 0.459-0.601 0.459-0.968v-17.682c0-0.877-0.501-1.286-1.587-1.286h-32.15c-1.075 0-1.576 0.401-1.576 1.261v17.682c0 0.86 0.501 1.269 1.566 1.269h19.489c0.127 0 0.253-0.007 0.388-0.015h0l0.029-0.002v-4.133h-0.449c-0.38 0-0.758 0.001-1.136 0.002-0.755 0.002-1.509 0.004-2.267-0.002-2.683-0.017-4.864-1.736-4.906-3.849-0.042-2.196 2.046-3.999 4.791-4.024 3.466-0.042 6.931-0.042 10.386 0 3.184 0.042 5.449 2.571 4.541 5.017-0.491 1.336-1.597 2.212-3.225 2.672-0.125 0.033-0.313 0.134-0.313 0.2-0.016 0.518-0.014 1.036-0.012 1.571 0.001 0.181 0.001 0.364 0.001 0.55h2.495c1.221 0 2.234 0.367 2.985 1.135 0.129 0.128 0.236 0.268 0.353 0.423l0 0c0.044 0.058 0.089 0.117 0.137 0.178zM33.894 30.105c0-0.117 0.001-0.23 0.002-0.339v-0c0.002-0.209 0.004-0.407-0.002-0.604-0.010-0.317 0.115-0.584 0.386-0.818 0.605-0.509 0.866-1.119 0.866-1.82v-3.339c0-0.81-0.522-1.227-1.545-1.227h-3.434c-0.825 0-1.284-0.359-1.294-1.019-0.007-0.534-0.005-1.069-0.002-1.603 0.001-0.267 0.002-0.534 0.002-0.801 0-0.125 0.001-0.25 0.001-0.376 0.002-0.376 0.004-0.751-0.012-1.127-0.021-0.601-0.522-1.035-1.2-1.085-0.835-0.058-1.472 0.434-1.472 1.152-0.007 1.286-0.005 2.571-0.002 3.854v0.002c0.001 0.641 0.002 1.281 0.002 1.921 0 0.743-0.438 1.085-1.367 1.094-0.376 0.004-0.754 0.002-1.133 0s-0.757-0.004-1.133 0c-0.804 0.017-1.367 0.451-1.378 1.035-0.021 0.593 0.543 1.060 1.347 1.102 0.042 0.002 0.084 0.003 0.125 0.004 0.167 0.005 0.334 0.011 0.501 0.037 1.785 0.267 2.996 1.411 3.038 2.872 0.007 0.239 0.005 0.477 0.002 0.719v0c-0.001 0.121-0.002 0.244-0.002 0.367h7.704zM31.357 15.766l0-0c0.23-0.134 0.458-0.266 0.637-0.438 0.699-0.651 0.846-1.403 0.397-2.187-0.459-0.801-1.273-1.219-2.38-1.227-2.219-0.006-4.437-0.004-6.659-0.002h-0.003c-1.112 0.001-2.224 0.002-3.338 0.002-0.198 0-0.397 0.008-0.585 0.042-1.315 0.234-2.161 1.186-2.015 2.271 0.125 1.010 1.242 1.812 2.557 1.82 0.523 0.004 1.046 0.003 1.57 0.002h0.001c0.699-0.001 1.4-0.003 2.103 0.007 0.292 0 0.418-0.075 0.543-0.284 1.117-1.962 4.374-2.338 6.117-0.701 0.179 0.178 0.329 0.368 0.497 0.58l0 0c0.076 0.096 0.156 0.198 0.244 0.304 0.102-0.066 0.207-0.127 0.313-0.188zM7.495 18.968c-0.845-0.142-1.294-0.526-1.221-1.044 0.073-0.559 0.595-0.86 1.461-0.86h0.939c0.772-0.008 1.347-0.459 1.357-1.052s-0.553-1.044-1.326-1.077c-1.743-0.075-3.111-0.893-3.549-2.137-0.501-1.444 0.313-2.855 2.046-3.49 0.209-0.075 0.313-0.159 0.334-0.359 0.042-0.518 0.491-0.868 1.086-0.902 0.616-0.033 1.075 0.276 1.242 0.801 0.021 0.083 0.146 0.184 0.251 0.2 0.679 0.134 1.065 0.518 1.002 1.027-0.063 0.484-0.532 0.818-1.2 0.843-0.244 0.006-0.487 0.004-0.731 0.002-0.122-0.001-0.244-0.002-0.365-0.002-0.866 0.008-1.461 0.451-1.461 1.069 0.010 0.609 0.595 1.044 1.43 1.069 1.67 0.050 3.069 0.935 3.466 2.204 0.449 1.403-0.428 2.839-2.077 3.44-0.136 0.050-0.282 0.184-0.303 0.292-0.094 0.568-0.501 0.927-1.117 0.952-0.626 0.025-1.075-0.284-1.232-0.852 0-0.028-0.009-0.056-0.019-0.083-0.005-0.014-0.009-0.028-0.013-0.042zM15.157 4.959c0 0.518 0.522 0.927 1.169 0.927 0.637-0.008 1.169-0.426 1.169-0.935s-0.553-0.943-1.18-0.935c-0.637 0-1.159 0.434-1.159 0.943zM11.294 5.886c-0.637 0-1.159-0.409-1.169-0.927 0-0.518 0.511-0.935 1.148-0.943s1.2 0.442 1.19 0.952c0 0.501-0.532 0.918-1.169 0.918zM5.094 4.976c0.010 0.501 0.553 0.918 1.19 0.91 0.647-0.008 1.148-0.417 1.148-0.935s-0.522-0.943-1.159-0.935c-0.637 0-1.19 0.451-1.18 0.96z"></path>
</symbol>
<symbol id="icon-facebook" viewBox="0 0 32 32">
<path fill="#3b5998" style="fill: var(--color2, #3b5998)" d="M32 16c0 8.837-7.163 16-16 16s-16-7.163-16-16c0-8.837 7.163-16 16-16s16 7.163 16 16z"></path>
<path fill="#fff" style="fill: var(--color3, #fff)" d="M20.252 10.366c-0.499-0.1-1.172-0.174-1.596-0.174-1.147 0-1.221 0.499-1.221 1.297v1.42h2.867l-0.25 2.942h-2.617v8.949h-3.59v-8.949h-1.845v-2.942h1.845v-1.82c0-2.493 1.172-3.889 4.113-3.889 1.022 0 1.77 0.15 2.742 0.349l-0.448 2.817z"></path>
</symbol>
<symbol id="icon-food" viewBox="0 0 32 32">
<path fill="#00a092" style="fill: var(--color1, #00a092)" d="M31.32 12.807c0.14-1.32-0.76-2.527-2.067-2.767-1.373-2.093-4.187-2.673-6.273-1.293-0.513 0.34-0.953 0.78-1.293 1.293-0.3 0.053-0.587 0.16-0.847 0.32l2.067-5.367c0.107-0.273-0.033-0.587-0.307-0.687-0.007 0-0.013-0.007-0.020-0.007l-1.6-0.533c-0.273-0.093-0.567 0.047-0.667 0.313l-0.58 1.473v-5.020c0-0.293-0.24-0.533-0.533-0.533h-2.133c-0.293 0-0.533 0.24-0.533 0.533v5.020l-0.567-1.48c-0.1-0.267-0.393-0.407-0.667-0.313l-1.6 0.533c-0.28 0.093-0.433 0.393-0.34 0.673 0 0.007 0.007 0.013 0.007 0.020l2.287 5.94c0.227 0.593 0.347 1.227 0.347 1.867v0.6c-0.18 0.067-0.347 0.147-0.513 0.247l-0.18-0.36c-0.473-0.953-1.44-1.553-2.507-1.547h-1.267c-0.293 0-0.533 0.24-0.533 0.533 0 0.080 0.020 0.167 0.053 0.24l0.44 0.88c0.473 0.953 1.44 1.553 2.507 1.547h0.147c-0.2 0.32-0.347 0.667-0.44 1.027-0.82-0.827-2.153-0.84-2.98-0.027-0.060 0.060-0.113 0.12-0.167 0.187l-0.127 0.153c-0.127 0.153-0.233 0.32-0.333 0.487l-0.473-1.64c-0.227-0.773-0.713-1.44-1.373-1.893 0.96-0.72 1.32-1.987 0.88-3.1-0.447-1.12-1.58-1.807-2.78-1.68-1.353-1.147-3.373-0.987-4.52 0.353-0.413 0.48-0.667 1.073-0.747 1.7-0.967 0.72-1.333 1.993-0.907 3.12 0.433 1.12 1.56 1.807 2.753 1.687-0.18 0.787-0.087 1.607 0.273 2.327l1.847 3.7h-4.52c-0.293 0-0.533 0.24-0.533 0.533v9.6c0 0.293 0.24 0.533 0.533 0.533h30.933c0.293 0 0.533-0.24 0.533-0.533v-9.6c0-0.293-0.24-0.533-0.533-0.533h-3.34c0.060-0.373 0.187-0.74 0.367-1.073 0.053 0 0.113 0.007 0.173 0.007 1.767 0 3.2-1.433 3.2-3.2 0-0.413-0.080-0.827-0.24-1.213 0.593-0.973 0.467-2.22-0.307-3.047zM25.507 20.44c-0.080-0.373-0.207-0.74-0.38-1.087 0.113-0.053 0.227-0.113 0.333-0.18 0.133 0.080 0.267 0.147 0.407 0.213-0.16 0.333-0.28 0.687-0.36 1.053zM24.1 19.687c0.287 0.5 0.433 1.067 0.433 1.647h-0.567c-0.060-0.467-0.187-0.92-0.393-1.347 0.187-0.080 0.36-0.18 0.527-0.3zM22.52 20.26c0.187 0.333 0.313 0.7 0.373 1.073h-1.587c-0.080-0.367-0.233-0.707-0.453-1l-0.567-0.76c0.567 0.453 1.267 0.693 1.987 0.693 0.080 0 0.16 0 0.247-0.007zM18.060 20.9c0.673-1.080 0.793-2.42 0.32-3.6l0.74-1.82c0.053 0.127 0.113 0.253 0.187 0.373-0.28 0.673-0.313 1.427-0.107 2.127v1.753c0 0.113 0.040 0.227 0.107 0.32l0.687 0.92c0.080 0.113 0.153 0.233 0.2 0.36h-2.407l0.273-0.433zM21.113 4.933l0.587 0.193-2.087 5.42c-0.227 0.593-0.367 1.227-0.407 1.86l-1.52 3.747-0.027-0.033c-0.167-0.207-0.367-0.38-0.6-0.513v-0.807l4.053-9.867zM17.6 8.267v-7.2h1.067v7.053c0 0.053 0.007 0.1 0.020 0.147l-0.553 1.447-0.533-1.393c0-0.020 0-0.033 0-0.053zM14.567 5.127l0.587-0.193 2.173 5.647c0.087 0.22 0.147 0.447 0.193 0.68l-0.473 1.033c-0.047-0.6-0.18-1.187-0.393-1.747l-2.087-5.42zM16 14.693v0.64c-0.353 0-0.7 0.093-1.013 0.267 0.24-0.427 0.587-0.78 1.013-1.020v0.113zM12.453 12.907l-0.053-0.107h0.4c0.66 0 1.26 0.367 1.553 0.96l0.053 0.107h-0.4c-0.66 0-1.267-0.367-1.553-0.96zM11.26 16.947l0.127-0.153c0.36-0.447 1.013-0.52 1.467-0.16 0.087 0.067 0.153 0.147 0.213 0.233 0.387 0.573 1.16 0.733 1.74 0.347 0.14-0.093 0.253-0.207 0.347-0.347 0.26-0.393 0.76-0.56 1.207-0.407 0 0 0.007 0 0.007 0.007 0.18 0.067 0.34 0.18 0.46 0.333l0.127 0.153c0.78 0.973 0.853 2.333 0.2 3.387l-0.627 1h-4.84l-0.627-1c-0.653-1.060-0.573-2.42 0.2-3.393zM9.56 18.573c0-0.007 0-0.007-0.007-0.013l0.007 0.013zM1.18 13.233c-0.287-0.733 0.007-1.567 0.687-1.967 0.16-0.093 0.26-0.26 0.267-0.447 0.033-1.18 1.020-2.107 2.193-2.073 0.553 0.013 1.080 0.247 1.467 0.64 0.127 0.133 0.32 0.187 0.5 0.147 0.773-0.167 1.547 0.247 1.84 0.98 0.32 0.82-0.080 1.747-0.9 2.067-0.113 0.047-0.24 0.080-0.36 0.093-0.020 0-0.040-0.007-0.053-0.007 0.113-0.527 0.36-1.013 0.72-1.407 0.2-0.22 0.187-0.553-0.033-0.753s-0.553-0.187-0.753 0.033l-0.007 0.007c-0.5 0.56-0.847 1.247-0.987 1.98-0.087 0.007-0.167 0.033-0.24 0.087l-0.753-1.927c-0.107-0.273-0.413-0.413-0.693-0.3-0.273 0.107-0.413 0.413-0.3 0.693l0.747 1.92c-0.087 0.013-0.167 0.047-0.233 0.1-0.607-0.447-1.32-0.72-2.067-0.787-0.293-0.027-0.553 0.187-0.58 0.48s0.187 0.553 0.48 0.58c0.533 0.053 1.047 0.24 1.48 0.547-0.013 0.013-0.020 0.033-0.033 0.047-0.727 0.5-1.72 0.32-2.22-0.407-0.067-0.1-0.127-0.213-0.167-0.327zM5.86 20.567l0.9-0.353c0.273-0.107 0.413-0.413 0.307-0.687s-0.413-0.413-0.687-0.307c0 0 0 0-0.007 0l-0.993 0.387-0.48-0.96 0.587-0.227c0.273-0.107 0.413-0.413 0.3-0.693s-0.413-0.413-0.693-0.3l-0.673 0.267-0.267-0.533c-0.3-0.6-0.333-1.3-0.093-1.927 0.067-0.173 0.153-0.333 0.253-0.487 0.2-0.16 0.373-0.34 0.52-0.547 0.18-0.133 0.373-0.247 0.587-0.327 0.207-0.080 0.427-0.133 0.653-0.153 0.247 0.053 0.5 0.073 0.753 0.053 0.18 0.040 0.353 0.107 0.52 0.187 0.607 0.293 1.053 0.833 1.24 1.48l0.847 2.933c0.007 0.013 0.007 0.020 0.013 0.033-0.147-0.167-0.387-0.227-0.593-0.147l-0.5 0.193c-0.273 0.107-0.413 0.413-0.3 0.693 0.107 0.273 0.413 0.413 0.693 0.3l0.5-0.193c0.147-0.053 0.253-0.173 0.307-0.32 0.027 0.7 0.233 1.38 0.607 1.973l0.273 0.433h-4.187l-0.387-0.773zM30.933 27.733h-29.867v-2.133h29.867v2.133zM30.933 30.933h-29.867v-2.133h29.867v2.133zM30.933 24.533h-29.867v-2.133h29.867v2.133zM27.047 21.333h-0.567c0-0.56 0.14-1.113 0.413-1.6 0.167 0.113 0.347 0.207 0.533 0.287-0.193 0.413-0.32 0.86-0.38 1.313zM30.6 15.46c-0.14 0.167-0.16 0.4-0.060 0.593 0.56 1.040 0.173 2.333-0.867 2.893-0.313 0.167-0.66 0.253-1.013 0.253-0.473 0-0.933-0.16-1.307-0.447-0.073-0.060-0.167-0.093-0.26-0.107-0.473-0.060-0.927-0.247-1.313-0.533-0.187-0.14-0.453-0.14-0.64 0-0.387 0.287-0.833 0.473-1.313 0.533-0.093 0.013-0.187 0.047-0.26 0.107-0.373 0.293-0.833 0.453-1.307 0.447-1.18 0-2.133-0.953-2.133-2.133 0-0.353 0.087-0.7 0.253-1.013 0.1-0.193 0.080-0.427-0.060-0.593-0.387-0.473-0.44-1.14-0.133-1.667 0.087-0.147 0.193-0.273 0.327-0.387 0.153-0.127 0.227-0.333 0.18-0.533-0.187-0.787 0.3-1.58 1.087-1.767 0.080-0.020 0.16-0.033 0.24-0.040 0.18-0.013 0.34-0.113 0.427-0.267 0.953-1.66 3.073-2.233 4.733-1.28 0.533 0.307 0.973 0.747 1.28 1.28 0.087 0.153 0.247 0.253 0.427 0.267 0.807 0.053 1.42 0.753 1.367 1.56-0.007 0.080-0.020 0.16-0.040 0.24-0.047 0.2 0.020 0.4 0.18 0.533 0.333 0.28 0.527 0.693 0.527 1.127 0.013 0.347-0.1 0.673-0.32 0.933z"></path>
</symbol>
<symbol id="icon-heart" viewBox="0 0 42 32">
<path fill="#00a092" style="fill: var(--color1, #00a092)" d="M38.945 2.264c-2.56-1.823-6.006-2.607-9.361-2.124-3.479 0.503-6.528 2.184-8.376 4.623-1.847-2.439-4.896-4.121-8.376-4.623-3.355-0.482-6.802 0.295-9.361 2.124-3.082 2.278-4.184 6.131-3.016 10.574 0.008 0.013 0.017 0.027 0.025 0.047 0.033 0.074 0.075 0.141 0.133 0.201 0.017 0.013 0.017 0.027 0.033 0.040s0.041 0.020 0.058 0.034c0.033 0.027 0.075 0.047 0.116 0.060 0.083 0.033 0.166 0.054 0.257 0.060 0.025 0 0.050 0.013 0.066 0.013 0.025 0 0.050-0.007 0.075-0.013 0.025 0 0.050 0 0.075 0 0.025-0.007 0.033-0.013 0.058-0.020 0.041-0.013 0.091-0.027 0.133-0.047s0.083-0.040 0.116-0.067c0.017-0.013 0.033-0.013 0.050-0.027l2.494-2.017c0.547-0.442 1.425-0.449 1.98-0.013s0.572 1.146 0.041 1.601l-4.076 3.297c-0.182 0.147-0.249 0.355-0.182 0.549s0.257 0.355 0.497 0.402c0.24 0.047 0.505 0 0.688-0.147l4.035-3.263c0.008-0.007 0.017-0.007 0.017-0.007 0.008-0.007 0.017-0.020 0.025-0.027l2.452-1.983c0.008-0.007 0.017-0.007 0.017-0.013 0.555-0.436 1.441-0.436 1.997 0 0.547 0.442 0.547 1.166 0.008 1.608l-0.008 0.007-7.531 6.091c-0.182 0.147-0.249 0.355-0.182 0.549s0.257 0.348 0.497 0.402c0.24 0.054 0.505-0.007 0.679-0.147l6.553-5.294c0.555-0.436 1.45-0.422 1.988 0.027s0.538 1.166-0.008 1.608l-6.959 5.629c-0.182 0.147-0.249 0.355-0.182 0.549s0.257 0.348 0.497 0.402c0.24 0.054 0.505-0.007 0.679-0.147l5.459-4.416c0.555-0.449 1.45-0.449 1.997 0 0.555 0.449 0.555 1.173 0 1.615 0 0 0 0.007-0.008 0.007l-5.493 4.443c-0.025 0.027-0.050 0.060-0.066 0.087-0.025 0.027-0.050 0.060-0.075 0.094-0.017 0.034-0.025 0.074-0.025 0.107-0.025 0.067-0.025 0.147 0.008 0.214 0.008 0.034 0.017 0.074 0.033 0.107 0.025 0.034 0.050 0.067 0.075 0.094 0.017 0.027 0.041 0.060 0.066 0.087l0.008 0.007 0.008 0.007c3.455 2.506 7.191 4.744 11.167 6.681 0.224 0.114 0.514 0.114 0.737 0 3.977-1.936 7.713-4.174 11.167-6.681l0.008-0.007 0.008-0.007c0.025-0.027 0.050-0.054 0.066-0.087 0.033-0.027 0.058-0.060 0.075-0.094 0.025-0.074 0.041-0.141 0.058-0.214 0-0.034-0.008-0.074-0.017-0.107s-0.017-0.074-0.025-0.107c-0.017-0.033-0.041-0.067-0.075-0.094-0.017-0.033-0.041-0.060-0.066-0.087l-0.008-0.007-0.008-0.007-5.476-4.429c0 0 0-0.007-0.008-0.007-0.555-0.449-0.555-1.173 0-1.615 0.555-0.449 1.45-0.449 1.997 0l5.459 4.416c0.273 0.221 0.721 0.221 1.002 0 0.273-0.221 0.273-0.583 0-0.811l-6.959-5.629c-0.356-0.288-0.497-0.71-0.365-1.106s0.514-0.704 1.002-0.811c0.489-0.107 1.011 0.007 1.367 0.295l0.008 0.007 6.52 5.273c0.273 0.221 0.721 0.221 0.994 0s0.273-0.583 0-0.804l-6.536-5.28c-0.008-0.007-0.008-0.007-0.017-0.007l-0.986-0.797c-0.555-0.449-0.555-1.173 0-1.615s1.45-0.449 1.997 0c0.008 0.007 0.017 0.007 0.017 0.013l2.386 1.93c0.025 0.027 0.058 0.054 0.099 0.080l4.051 3.27c0.182 0.147 0.439 0.201 0.688 0.147 0.24-0.054 0.431-0.208 0.497-0.402s-0.008-0.409-0.182-0.549l-4.059-3.277c-0.008-0.013-0.025-0.027-0.041-0.033v-0.007c-0.505-0.449-0.489-1.146 0.050-1.575 0.555-0.429 1.441-0.429 1.997 0l2.494 2.017c0.016 0.013 0.033 0.013 0.050 0.027 0.075 0.047 0.158 0.087 0.249 0.107 0.016 0.007 0.033 0.013 0.058 0.020 0.050 0.007 0.099 0.013 0.149 0.013 0.083 0 0.174-0.013 0.249-0.040 0.025-0.007 0.041-0.020 0.066-0.027 0.058-0.020 0.108-0.054 0.158-0.087 0.008-0.007 0.016-0.007 0.025-0.013 0.016-0.013 0.016-0.027 0.033-0.040 0.033-0.033 0.066-0.074 0.091-0.114 0.016-0.027 0.033-0.054 0.041-0.080 0.008-0.020 0.017-0.033 0.025-0.054 1.193-4.429 0.1-8.282-2.982-10.56zM40.809 11.538l-1.532-1.24c-1.118-0.864-2.875-0.864-3.993 0-0.348 0.288-0.596 0.637-0.729 1.025l-0.77-0.623c-0.008-0.007-0.025-0.013-0.033-0.020-0.978-0.777-2.51-0.871-3.62-0.221s-1.483 1.849-0.878 2.848c-0.978 0.147-1.781 0.704-2.121 1.454s-0.166 1.595 0.464 2.218c-0.497 0.094-0.953 0.302-1.309 0.59-1.094 0.891-1.102 2.325-0.008 3.223 0.008 0.007 0.008 0.013 0.008 0.013l4.954 4.007c-3.123 2.218-6.478 4.215-10.024 5.97-3.546-1.756-6.901-3.752-10.024-5.97l4.954-4.007c0.008-0.007 0.008-0.013 0.008-0.013 1.085-0.898 1.085-2.332-0.008-3.223-0.365-0.288-0.812-0.496-1.309-0.59 0.63-0.623 0.804-1.461 0.464-2.218s-1.143-1.307-2.113-1.461c0.522-0.871 0.307-1.916-0.539-2.607-1.102-0.858-2.842-0.864-3.968-0.020-0.017 0.007-0.025 0.013-0.041 0.020l-0.77 0.623c-0.124-0.389-0.373-0.744-0.721-1.032-1.094-0.884-2.875-0.891-3.977-0.013-0.008 0.007-0.017 0.007-0.017 0.013l-1.533 1.24c-0.638-3.571 0.356-6.607 2.817-8.429 2.245-1.575 5.244-2.245 8.177-1.836 3.322 0.449 6.164 2.184 7.986 4.885 0.133 0.174 0.373 0.275 0.621 0.275s0.489-0.107 0.621-0.275c1.831-2.707 4.664-4.443 7.986-4.885 2.924-0.409 5.932 0.268 8.177 1.836 2.444 1.829 3.438 4.865 2.8 8.443z"></path>
</symbol>
<symbol id="icon-instagram" viewBox="0 0 32 32">
<path fill="#c13584" style="fill: var(--color4, #c13584)" d="M32 16c0 8.837-7.163 16-16 16s-16-7.163-16-16c0-8.837 7.163-16 16-16s16 7.163 16 16z"></path>
<path fill="#fff" style="fill: var(--color3, #fff)" d="M16 8.13c2.563 0 2.867 0.010 3.879 0.056 0.936 0.043 1.444 0.199 1.783 0.331 0.448 0.174 0.768 0.382 1.104 0.718s0.544 0.656 0.718 1.104c0.131 0.338 0.288 0.847 0.331 1.783 0.046 1.012 0.056 1.316 0.056 3.879s-0.010 2.867-0.056 3.879c-0.043 0.936-0.199 1.444-0.331 1.783-0.174 0.448-0.382 0.768-0.718 1.104s-0.656 0.544-1.104 0.718c-0.338 0.132-0.847 0.288-1.783 0.331-1.012 0.046-1.316 0.056-3.879 0.056s-2.867-0.010-3.879-0.056c-0.936-0.043-1.444-0.199-1.783-0.331-0.448-0.174-0.768-0.382-1.104-0.718s-0.544-0.656-0.718-1.104c-0.131-0.338-0.288-0.847-0.331-1.783-0.046-1.012-0.056-1.316-0.056-3.879s0.010-2.867 0.056-3.879c0.043-0.936 0.199-1.444 0.331-1.783 0.174-0.448 0.382-0.768 0.718-1.104s0.656-0.544 1.104-0.718c0.338-0.131 0.847-0.288 1.783-0.331 1.012-0.046 1.316-0.056 3.879-0.056zM16 6.4c-2.607 0-2.934 0.011-3.958 0.058-1.022 0.047-1.72 0.209-2.33 0.446-0.631 0.245-1.167 0.574-1.7 1.107s-0.862 1.069-1.107 1.7c-0.237 0.611-0.4 1.308-0.446 2.33-0.047 1.024-0.058 1.351-0.058 3.958s0.011 2.934 0.058 3.958c0.047 1.022 0.209 1.72 0.446 2.33 0.245 0.631 0.574 1.167 1.107 1.7s1.069 0.862 1.7 1.107c0.611 0.237 1.309 0.4 2.33 0.446 1.024 0.047 1.351 0.058 3.958 0.058s2.934-0.011 3.958-0.058c1.022-0.047 1.72-0.209 2.33-0.446 0.631-0.245 1.167-0.574 1.7-1.107s0.862-1.069 1.107-1.7c0.237-0.611 0.4-1.308 0.446-2.33 0.047-1.024 0.058-1.351 0.058-3.958s-0.011-2.934-0.058-3.958c-0.047-1.022-0.209-1.72-0.446-2.33-0.245-0.631-0.574-1.167-1.107-1.7s-1.069-0.862-1.7-1.107c-0.611-0.237-1.309-0.4-2.33-0.446-1.024-0.047-1.351-0.058-3.958-0.058z"></path>
<path fill="#fff" style="fill: var(--color3, #fff)" d="M16.005 11.075c-2.723 0-4.93 2.207-4.93 4.93s2.207 4.93 4.93 4.93c2.723 0 4.93-2.207 4.93-4.93s-2.207-4.93-4.93-4.93zM16.005 19.204c-1.767 0-3.2-1.433-3.2-3.2s1.433-3.2 3.2-3.2c1.767 0 3.2 1.433 3.2 3.2s-1.433 3.2-3.2 3.2z"></path>
<path fill="#fff" style="fill: var(--color3, #fff)" d="M22.281 10.877c0 0.636-0.516 1.152-1.152 1.152s-1.152-0.516-1.152-1.152c0-0.636 0.516-1.152 1.152-1.152s1.152 0.516 1.152 1.152z"></path>
</symbol>
<symbol id="icon-logo" viewBox="0 0 61 32">
<path d="M48.197 20.273c0.948 0 1.581 0.922 1.259 1.836-0.159 0.458-0.47 0.806-0.782 1.155-0.027 0.030-0.053 0.059-0.080 0.089-0.221 0.247-0.434 0.501-0.618 0.774-0.262 0.391-0.393 0.842-0.48 1.305-0.026 0.144-0.060 0.285-0.105 0.421-0.232 0.751-0.847 1.104-1.592 0.873-0.918-0.285-1.431-0.968-1.678-1.874-0.176-0.653-0.075-1.271 0.318-1.817 0.12-0.171 0.322-0.296 0.509-0.395 0.147-0.078 0.315-0.117 0.48-0.156 0.036-0.009 0.072-0.017 0.108-0.026 0.434-0.106 0.734-0.368 0.955-0.755 0.18-0.315 0.371-0.63 0.603-0.907 0.281-0.334 0.656-0.524 1.101-0.524zM57.835 24.245c-0.049 0.987-0.453 1.772-1.3 2.296-0.333 0.205-0.697 0.304-1.094 0.232-0.412-0.076-0.715-0.3-0.869-0.694-0.094-0.247-0.161-0.505-0.214-0.763-0.154-0.744-0.491-1.377-1.023-1.92-0.27-0.277-0.513-0.584-0.73-0.903-0.199-0.288-0.303-0.626-0.262-0.986 0.124-1.066 1.266-1.578 2.146-0.964 0.397 0.277 0.667 0.664 0.865 1.1 0.217 0.467 0.573 0.725 1.056 0.842 0.214 0.053 0.427 0.133 0.626 0.231 0.573 0.285 0.742 0.812 0.794 1.408 0.006 0.026 0.005 0.058 0.004 0.090v0c-0 0.008-0 0.015-0 0.022 0 0.003-0 0.006-0 0.009zM51.292 26.866c-0.113-0.018-0.226-0.036-0.338-0.055 0 0.004-0 0.008-0.001 0.012-0.001 0.009-0.002 0.018 0.001 0.026-0.075 0.006-0.15 0.009-0.225 0.013s-0.15 0.008-0.225 0.013c-0.427 0.034-0.847 0.106-1.221 0.326-0.708 0.417-0.757 1.282-0.094 1.768 0.121 0.089 0.256 0.16 0.391 0.23 0.048 0.025 0.097 0.051 0.145 0.077 0.072 0.040 0.145 0.078 0.218 0.116 0.122 0.064 0.244 0.127 0.359 0.199 0.187 0.118 0.322 0.288 0.333 0.52 0.026 0.539-0.229 0.986-0.847 0.99-0.124 0-0.258 0-0.371-0.042-0.159-0.058-0.314-0.125-0.469-0.192-0.141-0.061-0.282-0.122-0.426-0.176-0.086-0.034-0.217-0.034-0.288 0.015-0.060 0.042-0.094 0.178-0.082 0.262 0.011 0.068 0.097 0.14 0.165 0.19 0.996 0.694 2.094 0.96 3.289 0.793 0.734-0.102 1.405-0.379 2.012-0.816 0.15-0.106 0.187-0.247 0.109-0.372-0.082-0.129-0.217-0.152-0.378-0.061-0.028 0.015-0.055 0.030-0.082 0.046s-0.054 0.030-0.082 0.046c-0.375 0.205-0.764 0.345-1.199 0.303-0.356-0.038-0.603-0.254-0.693-0.599-0.105-0.406-0.022-0.687 0.292-0.899 0.111-0.075 0.23-0.136 0.35-0.196 0.087-0.044 0.173-0.088 0.257-0.138 0.048-0.028 0.097-0.056 0.147-0.083 0.175-0.098 0.352-0.197 0.498-0.33 0.476-0.433 0.435-1.169-0.082-1.548-0.157-0.118-0.345-0.22-0.532-0.266-0.305-0.072-0.616-0.122-0.928-0.172z"></path>
<path d="M16.735 32h-16.735v-2.435l11.549-14.078h-11.353v-3.079h16.174v2.435l-11.549 14.078h11.914v3.079zM35.059 22.204c0-3.482-2.829-6.314-6.329-6.314s-6.329 2.832-6.329 6.314c0 3.482 2.829 6.314 6.329 6.314s6.329-2.832 6.329-6.314zM38.54 22.204c0 5.41-4.393 9.796-9.811 9.796s-9.811-4.386-9.811-9.796c0-5.41 4.393-9.796 9.811-9.796s9.811 4.386 9.811 9.796z"></path>
<path d="M33.502 3.192h-1.612v7.163h1.612v-7.163zM31.968 1.73c0.198 0.188 0.443 0.282 0.735 0.282 0.301 0 0.546-0.098 0.735-0.295 0.198-0.206 0.297-0.456 0.297-0.751 0-0.277-0.099-0.505-0.297-0.684-0.198-0.188-0.443-0.282-0.735-0.282s-0.537 0.098-0.735 0.295c-0.198 0.188-0.297 0.425-0.297 0.711s0.099 0.528 0.297 0.724zM28.163 0.402h1.612v9.953h-1.612v-9.953zM12.237 9.98c0.559 0.313 1.186 0.469 1.883 0.469 0.705 0 1.337-0.156 1.895-0.469s0.993-0.747 1.302-1.301c0.318-0.563 0.477-1.198 0.477-1.905s-0.159-1.337-0.477-1.891c-0.309-0.554-0.744-0.988-1.302-1.301s-1.191-0.469-1.896-0.469c-0.696 0-1.324 0.156-1.883 0.469s-0.997 0.747-1.315 1.301c-0.309 0.554-0.464 1.185-0.464 1.891s0.155 1.341 0.464 1.905c0.318 0.554 0.756 0.988 1.315 1.301zM15.59 8.397c-0.387 0.411-0.877 0.617-1.47 0.617s-1.083-0.206-1.47-0.617c-0.378-0.411-0.567-0.952-0.567-1.623s0.189-1.212 0.567-1.623c0.387-0.411 0.877-0.617 1.47-0.617s1.083 0.206 1.47 0.617c0.387 0.411 0.58 0.952 0.58 1.623s-0.193 1.212-0.58 1.623zM25.332 3.903c-0.524-0.528-1.221-0.791-2.089-0.791-0.507 0-0.963 0.085-1.367 0.255s-0.739 0.42-1.006 0.751v-0.926h-1.534v7.163h1.612v-3.622c0-0.698 0.172-1.23 0.516-1.596 0.344-0.376 0.812-0.563 1.405-0.563 0.524 0 0.928 0.161 1.212 0.483 0.284 0.313 0.426 0.782 0.426 1.408v3.89h1.612v-4.104c0-1.037-0.262-1.82-0.787-2.347zM39.525 3.112c0.868 0 1.565 0.264 2.089 0.791s0.787 1.31 0.787 2.347v4.104h-1.612v-3.89c0-0.626-0.142-1.095-0.426-1.408-0.284-0.322-0.688-0.483-1.212-0.483-0.593 0-1.062 0.188-1.406 0.563-0.344 0.367-0.516 0.899-0.516 1.596v3.622h-1.612v-7.163h1.534v0.926c0.267-0.331 0.602-0.581 1.006-0.751s0.86-0.255 1.367-0.255zM50.956 7.31c0.017-0.215 0.026-0.38 0.026-0.496 0-0.733-0.15-1.377-0.451-1.931-0.292-0.563-0.705-0.997-1.238-1.301-0.524-0.313-1.122-0.469-1.792-0.469-0.679 0-1.289 0.156-1.831 0.469s-0.967 0.751-1.277 1.314c-0.301 0.554-0.451 1.18-0.451 1.878 0 0.706 0.155 1.341 0.464 1.905 0.318 0.554 0.765 0.988 1.341 1.301s1.242 0.469 1.999 0.469c0.593 0 1.126-0.098 1.599-0.295s0.864-0.487 1.173-0.872l-0.864-1.033c-0.49 0.519-1.113 0.778-1.87 0.778-0.593 0-1.092-0.152-1.496-0.456-0.395-0.313-0.64-0.733-0.735-1.261h5.403zM46.185 4.936c0.361-0.322 0.799-0.483 1.315-0.483 0.524 0 0.963 0.161 1.315 0.483s0.563 0.742 0.632 1.261h-3.907c0.077-0.528 0.292-0.948 0.645-1.261zM59.535 20.256c1.149-0.769 1.905-2.077 1.905-3.562 0-2.367-1.922-4.286-4.293-4.286-1.516 0-2.849 0.785-3.613 1.97 2.78 0.954 4.993 3.126 6.001 5.878zM42.407 20.256c-1.149-0.769-1.905-2.077-1.905-3.562 0-2.367 1.922-4.286 4.293-4.286 1.516 0 2.849 0.785 3.613 1.97-2.78 0.954-4.993 3.126-6 5.877z"></path>
</symbol>
<symbol id="icon-yem" viewBox="0 0 32 32">
<path fill="#fff" style="fill: var(--color3, #fff)" d="M32 16c0 8.837-7.163 16-16 16s-16-7.163-16-16c0-8.837 7.163-16 16-16s16 7.163 16 16zM4.263 23.22c-0.233 0.291-0.475 0.592-0.73 0.904 0.278 0.018 0.484 0.041 0.656 0.060 0.126 0.014 0.234 0.026 0.34 0.033 0.535 0 1.135-0.026 1.746-0.053 0.882-0.038 1.786-0.078 2.55-0.041 0.422 0.166 0.56 0.259 0.821 0.434 0.056 0.038 0.119 0.080 0.191 0.127 3.564 2.335 7.331 2.739 11.035 0.7 0.887-0.498 2.428-1.23 2.428-1.23s1.79 0.031 2.63 0.078c0.545 0.031 1.090 0.016 1.634 0 0.142 0 0.28-0.015 0.449-0.034 0.127-0.014 0.273-0.030 0.453-0.044-0.111-0.15-0.2-0.278-0.278-0.391-0.109-0.157-0.198-0.285-0.298-0.403-0.070-0.088-0.14-0.176-0.21-0.265-0.475-0.599-0.955-1.205-1.471-1.774-0.436-0.483-0.514-0.872-0.265-1.51 2.599-6.693-2.086-14.008-9.23-14.459-7.704-0.498-13.385 7.206-10.615 14.428 0.249 0.654 0.156 1.074-0.28 1.572-0.531 0.585-1.024 1.2-1.558 1.866zM19.752 12.050c-1.222 1.478-2.46 2.975-3.736 4.51-1.055-1.272-2.095-2.521-3.125-3.759-1.036-1.245-2.063-2.479-3.086-3.712 2.646-2.879 8.514-3.595 12.436-0.047-0.827 0.998-1.655 1.998-2.489 3.007zM15.984 23.938c0 0 2.319-3.237 2.537-3.564 0.881 0.785 1.706 1.523 2.512 2.243 0.233 0.208 0.464 0.415 0.695 0.621-2.521 2.646-8.296 2.988-11.486 0.047 1.058-0.949 2.117-1.899 3.284-2.942 0.374 0.654 2.459 3.595 2.459 3.595zM7.393 19.44c-0.903-1.463-0.996-4.56-0.171-6.584 0.114 0.189 0.228 0.376 0.34 0.562 0.636 1.050 1.239 2.044 1.808 3.049 0.078 0.14 0.047 0.467-0.062 0.607-0.466 0.621-0.96 1.215-1.459 1.817-0.151 0.182-0.303 0.365-0.455 0.549zM24.84 12.856c0.732 2.288 0.685 4.389-0.125 6.646-0.051-0.061-0.101-0.122-0.151-0.182-0.681-0.822-1.258-1.52-1.795-2.231-0.109-0.156-0.156-0.467-0.062-0.623 0.473-0.845 0.97-1.673 1.504-2.561 0.204-0.34 0.413-0.688 0.628-1.050z"></path>
</symbol>
<symbol id="icon-youtube" viewBox="0 0 32 32">
<path fill="#f00" style="fill: var(--color5, #f00)" d="M32 16c0 8.837-7.163 16-16 16s-16-7.163-16-16c0-8.837 7.163-16 16-16s16 7.163 16 16z"></path>
<path fill="#fff" style="fill: var(--color3, #fff)" d="M25.040 9.902c0.319 0.319 0.549 0.717 0.667 1.152 0.679 2.734 0.522 7.051 0.013 9.89-0.118 0.436-0.348 0.833-0.667 1.152s-0.717 0.549-1.152 0.667c-1.596 0.435-8.018 0.435-8.018 0.435s-6.422 0-8.018-0.435c-0.436-0.118-0.833-0.348-1.152-0.667s-0.549-0.717-0.667-1.152c-0.683-2.722-0.496-7.042-0.013-9.877 0.118-0.436 0.348-0.833 0.667-1.153s0.717-0.549 1.152-0.667c1.596-0.435 8.018-0.448 8.018-0.448s6.422 0 8.018 0.435c0.436 0.118 0.833 0.348 1.152 0.667zM19.154 16l-5.327 3.086v-6.171l5.327 3.086z"></path>
</symbol>
<symbol id="icon-search" viewBox="0 0 32 32">
<path fill="#fff" style="fill: var(--color3, #fff)" d="M12.688 18.688c3.313 0 6-2.688 6-6s-2.688-6-6-6c-3.312 0-6 2.688-6 6s2.688 6 6 6zM20.688 18.688l6.625 6.625-2 2-6.625-6.625v-1.063l-0.375-0.375c-1.5 1.313-3.5 2.063-5.625 2.063-4.813 0-8.688-3.813-8.688-8.625s3.875-8.688 8.688-8.688c4.813 0 8.625 3.875 8.625 8.688 0 2.125-0.75 4.125-2.063 5.625l0.375 0.375h1.063z"></path>
</symbol>
</defs>
</svg>
