<svg aria-hidden="true" style="position: absolute; width: 0; height: 0; overflow: hidden;" version="1.1" xmlns="http://www.w3.org/2000/svg" xmlns:xlink="http://www.w3.org/1999/xlink">
<defs>
<symbol id="icon-logo" viewBox="0 0 61 32">
<path d="M48.197 20.273c0.948 0 1.581 0.922 1.259 1.836-0.159 0.458-0.47 0.806-0.782 1.155-0.027 0.030-0.053 0.059-0.080 0.089-0.221 0.247-0.434 0.501-0.618 0.774-0.262 0.391-0.393 0.842-0.48 1.305-0.026 0.144-0.060 0.285-0.105 0.421-0.232 0.751-0.847 1.104-1.592 0.873-0.918-0.285-1.431-0.968-1.678-1.874-0.176-0.653-0.075-1.271 0.318-1.817 0.12-0.171 0.322-0.296 0.509-0.395 0.147-0.078 0.315-0.117 0.48-0.156 0.036-0.009 0.072-0.017 0.108-0.026 0.434-0.106 0.734-0.368 0.955-0.755 0.18-0.315 0.371-0.63 0.603-0.907 0.281-0.334 0.656-0.524 1.101-0.524zM57.835 24.245c-0.049 0.987-0.453 1.772-1.3 2.296-0.333 0.205-0.697 0.304-1.094 0.232-0.412-0.076-0.715-0.3-0.869-0.694-0.094-0.247-0.161-0.505-0.214-0.763-0.154-0.744-0.491-1.377-1.023-1.92-0.27-0.277-0.513-0.584-0.73-0.903-0.199-0.288-0.303-0.626-0.262-0.986 0.124-1.066 1.266-1.578 2.146-0.964 0.397 0.277 0.667 0.664 0.865 1.1 0.217 0.467 0.573 0.725 1.056 0.842 0.214 0.053 0.427 0.133 0.626 0.231 0.573 0.285 0.742 0.812 0.794 1.408 0.006 0.026 0.005 0.058 0.004 0.090v0c-0 0.008-0 0.015-0 0.022 0 0.003-0 0.006-0 0.009zM51.292 26.866c-0.113-0.018-0.226-0.036-0.338-0.055 0 0.004-0 0.008-0.001 0.012-0.001 0.009-0.002 0.018 0.001 0.026-0.075 0.006-0.15 0.009-0.225 0.013s-0.15 0.008-0.225 0.013c-0.427 0.034-0.847 0.106-1.221 0.326-0.708 0.417-0.757 1.282-0.094 1.768 0.121 0.089 0.256 0.16 0.391 0.23 0.048 0.025 0.097 0.051 0.145 0.077 0.072 0.040 0.145 0.078 0.218 0.116 0.122 0.064 0.244 0.127 0.359 0.199 0.187 0.118 0.322 0.288 0.333 0.52 0.026 0.539-0.229 0.986-0.847 0.99-0.124 0-0.258 0-0.371-0.042-0.159-0.058-0.314-0.125-0.469-0.192-0.141-0.061-0.282-0.122-0.426-0.176-0.086-0.034-0.217-0.034-0.288 0.015-0.060 0.042-0.094 0.178-0.082 0.262 0.011 0.068 0.097 0.14 0.165 0.19 0.996 0.694 2.094 0.96 3.289 0.793 0.734-0.102 1.405-0.379 2.012-0.816 0.15-0.106 0.187-0.247 0.109-0.372-0.082-0.129-0.217-0.152-0.378-0.061-0.028 0.015-0.055 0.030-0.082 0.046s-0.054 0.030-0.082 0.046c-0.375 0.205-0.764 0.345-1.199 0.303-0.356-0.038-0.603-0.254-0.693-0.599-0.105-0.406-0.022-0.687 0.292-0.899 0.111-0.075 0.23-0.136 0.35-0.196 0.087-0.044 0.173-0.088 0.257-0.138 0.048-0.028 0.097-0.056 0.147-0.083 0.175-0.098 0.352-0.197 0.498-0.33 0.476-0.433 0.435-1.169-0.082-1.548-0.157-0.118-0.345-0.22-0.532-0.266-0.305-0.072-0.616-0.122-0.928-0.172z"></path>
<path d="M16.735 32h-16.735v-2.435l11.549-14.078h-11.353v-3.079h16.174v2.435l-11.549 14.078h11.914v3.079zM35.059 22.204c0-3.482-2.829-6.314-6.329-6.314s-6.329 2.832-6.329 6.314c0 3.482 2.829 6.314 6.329 6.314s6.329-2.832 6.329-6.314zM38.54 22.204c0 5.41-4.393 9.796-9.811 9.796s-9.811-4.386-9.811-9.796c0-5.41 4.393-9.796 9.811-9.796s9.811 4.386 9.811 9.796z"></path>
<path d="M33.502 3.192h-1.612v7.163h1.612v-7.163zM31.968 1.73c0.198 0.188 0.443 0.282 0.735 0.282 0.301 0 0.546-0.098 0.735-0.295 0.198-0.206 0.297-0.456 0.297-0.751 0-0.277-0.099-0.505-0.297-0.684-0.198-0.188-0.443-0.282-0.735-0.282s-0.537 0.098-0.735 0.295c-0.198 0.188-0.297 0.425-0.297 0.711s0.099 0.528 0.297 0.724zM28.163 0.402h1.612v9.953h-1.612v-9.953zM12.237 9.98c0.559 0.313 1.186 0.469 1.883 0.469 0.705 0 1.337-0.156 1.895-0.469s0.993-0.747 1.302-1.301c0.318-0.563 0.477-1.198 0.477-1.905s-0.159-1.337-0.477-1.891c-0.309-0.554-0.744-0.988-1.302-1.301s-1.191-0.469-1.896-0.469c-0.696 0-1.324 0.156-1.883 0.469s-0.997 0.747-1.315 1.301c-0.309 0.554-0.464 1.185-0.464 1.891s0.155 1.341 0.464 1.905c0.318 0.554 0.756 0.988 1.315 1.301zM15.59 8.397c-0.387 0.411-0.877 0.617-1.47 0.617s-1.083-0.206-1.47-0.617c-0.378-0.411-0.567-0.952-0.567-1.623s0.189-1.212 0.567-1.623c0.387-0.411 0.877-0.617 1.47-0.617s1.083 0.206 1.47 0.617c0.387 0.411 0.58 0.952 0.58 1.623s-0.193 1.212-0.58 1.623zM25.332 3.903c-0.524-0.528-1.221-0.791-2.089-0.791-0.507 0-0.963 0.085-1.367 0.255s-0.739 0.42-1.006 0.751v-0.926h-1.534v7.163h1.612v-3.622c0-0.698 0.172-1.23 0.516-1.596 0.344-0.376 0.812-0.563 1.405-0.563 0.524 0 0.928 0.161 1.212 0.483 0.284 0.313 0.426 0.782 0.426 1.408v3.89h1.612v-4.104c0-1.037-0.262-1.82-0.787-2.347zM39.525 3.112c0.868 0 1.565 0.264 2.089 0.791s0.787 1.31 0.787 2.347v4.104h-1.612v-3.89c0-0.626-0.142-1.095-0.426-1.408-0.284-0.322-0.688-0.483-1.212-0.483-0.593 0-1.062 0.188-1.406 0.563-0.344 0.367-0.516 0.899-0.516 1.596v3.622h-1.612v-7.163h1.534v0.926c0.267-0.331 0.602-0.581 1.006-0.751s0.86-0.255 1.367-0.255zM50.956 7.31c0.017-0.215 0.026-0.38 0.026-0.496 0-0.733-0.15-1.377-0.451-1.931-0.292-0.563-0.705-0.997-1.238-1.301-0.524-0.313-1.122-0.469-1.792-0.469-0.679 0-1.289 0.156-1.831 0.469s-0.967 0.751-1.277 1.314c-0.301 0.554-0.451 1.18-0.451 1.878 0 0.706 0.155 1.341 0.464 1.905 0.318 0.554 0.765 0.988 1.341 1.301s1.242 0.469 1.999 0.469c0.593 0 1.126-0.098 1.599-0.295s0.864-0.487 1.173-0.872l-0.864-1.033c-0.49 0.519-1.113 0.778-1.87 0.778-0.593 0-1.092-0.152-1.496-0.456-0.395-0.313-0.64-0.733-0.735-1.261h5.403zM46.185 4.936c0.361-0.322 0.799-0.483 1.315-0.483 0.524 0 0.963 0.161 1.315 0.483s0.563 0.742 0.632 1.261h-3.907c0.077-0.528 0.292-0.948 0.645-1.261zM59.535 20.256c1.149-0.769 1.905-2.077 1.905-3.562 0-2.367-1.922-4.286-4.293-4.286-1.516 0-2.849 0.785-3.613 1.97 2.78 0.954 4.993 3.126 6.001 5.878zM42.407 20.256c-1.149-0.769-1.905-2.077-1.905-3.562 0-2.367 1.922-4.286 4.293-4.286 1.516 0 2.849 0.785 3.613 1.97-2.78 0.954-4.993 3.126-6 5.877z"></path>
</symbol>
<symbol id="icon-facebook" viewBox="0 0 16 32">
<path  d="M15.004 5.757c-0.907-0.181-2.131-0.317-2.901-0.317-2.085 0-2.221 0.907-2.221 2.357v2.582h5.213l-0.454 5.349h-4.758v16.271h-6.527v-16.271h-3.355v-5.349h3.355v-3.309c0-4.532 2.13-7.071 7.478-7.071 1.858 0 3.218 0.272 4.986 0.635l-0.815 5.122z"></path>
</symbol>
<symbol id="icon-instagram" viewBox="0 0 32 32">
<path  d="M16 2.883c4.272 0 4.778 0.016 6.465 0.093 1.56 0.071 2.407 0.332 2.971 0.551 0.747 0.29 1.28 0.637 1.84 1.197s0.907 1.093 1.197 1.84c0.219 0.564 0.48 1.411 0.551 2.971 0.077 1.687 0.093 2.193 0.093 6.465s-0.016 4.778-0.093 6.465c-0.071 1.56-0.332 2.407-0.551 2.971-0.29 0.747-0.637 1.28-1.197 1.84s-1.093 0.907-1.84 1.197c-0.564 0.219-1.411 0.48-2.971 0.551-1.687 0.077-2.193 0.093-6.465 0.093s-4.778-0.016-6.465-0.093c-1.56-0.071-2.407-0.332-2.971-0.551-0.747-0.29-1.28-0.637-1.84-1.197s-0.907-1.093-1.197-1.84c-0.219-0.564-0.48-1.411-0.551-2.971-0.077-1.687-0.093-2.193-0.093-6.465s0.016-4.778 0.093-6.465c0.071-1.56 0.332-2.407 0.551-2.971 0.29-0.747 0.637-1.28 1.197-1.84s1.093-0.907 1.84-1.197c0.564-0.219 1.411-0.48 2.971-0.551 1.687-0.077 2.193-0.093 6.465-0.093zM16 0c-4.345 0-4.89 0.018-6.597 0.096-1.703 0.078-2.866 0.348-3.884 0.744-1.052 0.409-1.944 0.956-2.834 1.845s-1.437 1.782-1.845 2.834c-0.396 1.018-0.666 2.181-0.744 3.884-0.078 1.707-0.096 2.251-0.096 6.597s0.018 4.89 0.096 6.597c0.078 1.703 0.348 2.866 0.744 3.884 0.409 1.052 0.956 1.944 1.845 2.834s1.782 1.437 2.834 1.845c1.018 0.396 2.181 0.666 3.884 0.744 1.707 0.078 2.251 0.096 6.597 0.096s4.89-0.018 6.597-0.096c1.703-0.078 2.866-0.348 3.884-0.744 1.052-0.409 1.944-0.956 2.834-1.845s1.437-1.782 1.845-2.834c0.396-1.018 0.666-2.181 0.744-3.884 0.078-1.707 0.096-2.251 0.096-6.597s-0.018-4.89-0.096-6.597c-0.078-1.703-0.348-2.866-0.744-3.884-0.409-1.052-0.956-1.944-1.845-2.834s-1.782-1.437-2.834-1.845c-1.018-0.396-2.181-0.666-3.884-0.744-1.707-0.078-2.251-0.096-6.597-0.096z"></path>
<path d="M16.008 7.791c-4.538 0-8.216 3.678-8.216 8.216s3.678 8.216 8.216 8.216c4.538 0 8.216-3.678 8.216-8.216s-3.679-8.216-8.216-8.216zM16.008 21.341c-2.946 0-5.333-2.388-5.333-5.333s2.388-5.333 5.333-5.333c2.946 0 5.333 2.388 5.333 5.333s-2.388 5.333-5.333 5.333z"></path>
<path  d="M26.468 7.462c0 1.060-0.86 1.92-1.92 1.92s-1.92-0.86-1.92-1.92c0-1.060 0.86-1.92 1.92-1.92s1.92 0.86 1.92 1.92z"></path>
</symbol>
<symbol id="icon-youtube" viewBox="0 0 46 32">
<path  d="M43.201 2.45c0.709 0.709 1.221 1.592 1.483 2.561 1.509 6.075 1.16 15.669 0.029 21.978-0.262 0.969-0.773 1.852-1.483 2.561s-1.593 1.221-2.561 1.483c-3.546 0.967-17.817 0.967-17.817 0.967s-14.271 0-17.817-0.967c-0.969-0.262-1.852-0.773-2.561-1.483s-1.221-1.593-1.483-2.561c-1.518-6.048-1.102-15.648-0.029-21.949 0.262-0.969 0.773-1.852 1.483-2.561s1.593-1.221 2.561-1.483c3.546-0.967 17.817-0.996 17.817-0.996s14.271 0 17.817 0.967c0.969 0.262 1.852 0.773 2.561 1.483zM30.12 16l-11.839 6.857v-13.714l11.839 6.857z"></path>
</symbol>
</defs>
</svg>
